<svg xmlns="http://www.w3.org/2000/svg" xmlns:xlink="http://www.w3.org/1999/xlink" width="16" height="16" version="1.1" viewBox="0 0 16 16"><title>esc_inventory_item</title><defs><linearGradient id="linearGradient-1" x1="0%" x2="100%" y1="32.986%" y2="67.014%"><stop offset="0%" stop-color="#D4FF2A"/><stop offset="100%" stop-color="#81D135"/></linearGradient><linearGradient id="linearGradient-2" x1="0%" x2="100%" y1="0%" y2="100%"><stop offset="0%" stop-color="#D4FF2A"/><stop offset="100%" stop-color="#81D135"/></linearGradient></defs><g id="esc_inventory_item" fill="none" fill-rule="evenodd" stroke="none" stroke-width="1"><g id="Group-Copy" transform="translate(2.000000, 4.000000)"><rect id="Rectangle" width="12" height="7" x="0" y="1" fill="url(#linearGradient-1)" rx="1"/><path id="Rectangle" fill="#1B2F0D" fill-rule="nonzero" d="M10.2857143,0 C11.2324881,0 12,0.8954305 12,2 L12,7 C12,8.1045695 11.2324881,9 10.2857143,9 L1.71428571,9 C0.767511857,9 0,8.1045695 0,7 L0,2 C0,0.8954305 0.767511857,0 1.71428571,0 L10.2857143,0 Z M10.2857143,1 L1.71428571,1 C1.27471214,1 0.912422434,1.38604019 0.862909484,1.88337887 L0.857142857,2 L0.857142857,7 C0.857142857,7.51283584 1.18803445,7.93550716 1.61432475,7.99327227 L1.71428571,8 L10.2857143,8 C10.7252879,8 11.0875776,7.61395981 11.1370905,7.11662113 L11.1428571,7 L11.1428571,2 C11.1428571,1.48716416 10.8119656,1.06449284 10.3856753,1.00672773 L10.2857143,1 Z"/></g><path id="Rectangle-Copy" fill="url(#linearGradient-2)" fill-rule="nonzero" d="M13,2 L13,12 L3,12 L3,2 L13,2 Z"/><path id="Rectangle" fill="#1B2F0D" fill-rule="nonzero" d="M13,2 L13,12 L3,12 L3,2 L13,2 Z M12,3 L4,3 L4,11 L12,11 L12,3 Z"/><g id="Group" transform="translate(1.000000, 6.000000)"><rect id="Rectangle" width="12" height="7" x="1" y="1" fill="url(#linearGradient-1)"/><path id="Rectangle" fill="#1B2F0D" fill-rule="nonzero" d="M9,0 L9,5 L5,5 L5,0 L9,0 Z M8,1 L6,1 L6,4 L8,4 L8,1 Z"/><path id="Rectangle" fill="#1B2F0D" fill-rule="nonzero" d="M12,0 C13.1045695,0 14,0.8954305 14,2 L14,7 C14,8.1045695 13.1045695,9 12,9 L2,9 C0.8954305,9 0,8.1045695 0,7 L0,2 C0,0.8954305 0.8954305,0 2,0 L12,0 Z M12,1 L2,1 C1.48716416,1 1.06449284,1.38604019 1.00672773,1.88337887 L1,2 L1,7 C1,7.51283584 1.38604019,7.93550716 1.88337887,7.99327227 L2,8 L12,8 C12.5128358,8 12.9355072,7.61395981 12.9932723,7.11662113 L13,7 L13,2 C13,1.48716416 12.6139598,1.06449284 12.1166211,1.00672773 L12,1 Z"/></g></g></svg>